{"title":"World War Z [2013, BDRip-AVC 1080p]  ","uid":8915034,"size":11343763885,"categoryP":"video","categoryS":"hd___movies","magnet":"?xt=urn:btih:a72256cbdc02a914cf1e0daaedb5a95badfb76a5&amp;dn=World+War+Z+%5B2013%2C+BDRip-AVC+1080p%5D++&amp;tr=udp%3A%2F%2Ftracker.openbittorrent.com%3A80&amp;tr=udp%3A%2F%2Fopen.demonii.com%3A1337&amp;tr=udp%3A%2F%2Ftracker.coppersurfer.tk%3A6969&amp;tr=udp%3A%2F%2Fexodus.desync.com%3A6969","seeders":1,"leechers":0,"uploader":"yfjfrj","files":1,"time":1379121548,"description":"General\nUnique ID                                : 229134088847996070397597482357210296061 (0xAC619ECBEE1141C28665D6DB3EE92EFD)\nComplete name                            : D:World.War.Z.2013.Theatrical.1080p.BluRay.Rus.Eng.HDCLUB.mkv\nFormat                                   : Matroska\nFormat version                           : Version 2\nFile size                                : 10.6 GiB\nDuration                                 : 1h 56mn\nOverall bit rate                         : 13.0 Mbps\nMovie name                               : World War Z [Theatrical cut] (2013) - Release for HDCLUB\nEncoded date                             : UTC 2013-09-13 10:54:38\nWriting application                      : mkvmerge v3.4.0 ('Rapunzel') built on May 15 2010 09:38:20\nWriting library                          : libebml v0.8.0 + libmatroska v0.9.0\n\nVideo\nID                                       : 1\nFormat                                   : AVC\nFormat/Info                              : Advanced Video Codec\nFormat profile                           : &lt;a class=&quot;__cf_email__&quot; href=&quot;/cdn-cgi/l/email-protection&quot; data-cfemail=&quot;8ec6e7e9e6cec2baa0bf&quot;&gt;[email&amp;#160;protected]&lt;/a&gt;&lt;script cf-hash='f9e31' type=&quot;text/javascript&quot;&gt;\n/* &lt;![CDATA[ */!function(){try{var t=&quot;currentScript&quot;in document?document.currentScript:function(){for(var t=document.getElementsByTagName(&quot;script&quot;),e=t.length;e--;)if(t[e].getAttribute(&quot;cf-hash&quot;))return t[e]}();if(t&amp;&amp;t.previousSibling){var e,r,n,i,c=t.previousSibling,a=c.getAttribute(&quot;data-cfemail&quot;);if(a){for(e=&quot;&quot;,r=parseInt(a.substr(0,2),16),n=2;a.length-n;n+=2)i=parseInt(a.substr(n,2),16)^r,e+=String.fromCharCode(i);e=document.createTextNode(e),c.parentNode.replaceChild(e,c)}}}catch(u){}}();/* ]]&gt; */&lt;/script&gt;\nFormat settings, CABAC                   : Yes\nFormat settings, ReFrames                : 5 frames\nCodec ID                                 : V_MPEG4/ISO/AVC\nDuration                                 : 1h 56mn\nBit rate                                 : 10.0 Mbps\nWidth                                    : 1 920 pixels\nHeight                                   : 800 pixels\nDisplay aspect ratio                     : 2.40:1\nFrame rate mode                          : Constant\nFrame rate                               : 23.976 fps\nColor space                              : YUV\nChroma subsampling                       : 4:2:0\nBit depth                                : 8 bits\nScan type                                : Progressive\nBits/(Pixel*Frame)                       : 0.272\nStream size                              : 7.91 GiB (75%)\nTitle                                    : World War Z [Theatrical cut] (2013) - Release for HDCLUB\nWriting library                          : x264 core 138 r2359+704+48 3f879a0 tMod [8-bit@all X86_64]\nEncoding settings                        : cabac=1 // deblock=1:-3:-3 / analyse=0x3:0x133 / me=umh / subme=11 / psy=1 / fade_compensate=0.00 / psy_rd=1.00:0.00 // me_range=48 / chroma_me=1 / trellis=2 / 8x8dct=1 / cqm=0 / deadzone=21,11 / fast_pskip=0 / chroma_qp_offset=-2 / threads=12 / lookahead_threads=2 / sliced_threads=0 / nr=0 / decimate=0 / interlaced=0 / bluray_compat=0 / constrained_intra=0 / fgo=0 / bframes=7 / b_pyramid=2 / b_adapt=2 / b_bias=0 / direct=3 / weightb=1 / open_gop=0 / weightp=2 / keyint=240 / keyint_min=23 / scenecut=40 / intra_refresh=0 / rc_lookahead=60 / rc=2pass / mbtree=0 / bitrate=10017 / ratetol=1.0 / qcomp=0.60 / qpmin=0:0:0 / qpmax=69:69:69 / qpstep=4 / cplxblur=20.0 / qblur=0.5 / vbv_maxrate=50000 / vbv_bufsize=62500 / nal_hrd=none / ip_ratio=1.30 / pb_ratio=1.25 / aq=1:0.80 / aq-sensitivity=10.00 / aq-factor=1.00:1.00:1.00 / aq2=0 / aq3=0\nLanguage                                 : English\nDefault                                  : Yes\nForced                                   : No\n\nAudio #1\nID                                       : 2\nFormat                                   : DTS\nFormat/Info                              : Digital Theater Systems\nMode                                     : 16\nFormat settings, Endianness              : Big\nCodec ID                                 : A_DTS\nDuration                                 : 1h 56mn\nBit rate mode                            : Constant\nBit rate                                 : 1 509 Kbps\nChannel(s)                               : 6 channels\nChannel positions                        : Front: L C R, Side: L R, LFE\nSampling rate                            : 48.0 KHz\nBit depth                                : 24 bits\nCompression mode                         : Lossy\nStream size                              : 1.22 GiB (12%)\nTitle                                    : DTS 5.1 @ 1536 kbps - DUB\nLanguage                                 : Russian\nDefault                                  : Yes\nForced                                   : No\n\nAudio #2\nID                                       : 3\nFormat                                   : DTS\nFormat/Info                              : Digital Theater Systems\nMode                                     : 16\nFormat settings, Endianness              : Big\nCodec ID                                 : A_DTS\nDuration                                 : 1h 56mn\nBit rate mode                            : Constant\nBit rate                                 : 1 509 Kbps\nChannel(s)                               : 6 channels\nChannel positions                        : Front: L C R, Side: L R, LFE\nSampling rate                            : 48.0 KHz\nBit depth                                : 24 bits\nCompression mode                         : Lossy\nStream size                              : 1.22 GiB (12%)\nTitle                                    : DTS 5.1 @ 1536 kbps\nLanguage                                 : English\nDefault                                  : No\nForced                                   : No\n\nText #1\nID                                       : 4\nFormat                                   : UTF-8\nCodec ID                                 : S_TEXT/UTF8\nCodec ID/Info                            : UTF-8 Plain Text\nLanguage                                 : English\nDefault                                  : No\nForced                                   : No\n\nText #2\nID                                       : 5\nFormat                                   : UTF-8\nCodec ID                                 : S_TEXT/UTF8\nCodec ID/Info                            : UTF-8 Plain Text\nTitle                                    : SDH\nLanguage                                 : English\nDefault                                  : No\nForced                                   : No\n\nMenu\n00:00:00.000                             : en:00:00:00.000\n00:05:05.180                             : en:00:05:05.180\n00:13:04.659                             : en:00:13:04.659\n00:20:31.188                             : en:00:20:31.188\n00:27:02.579                             : en:00:27:02.579\n00:32:38.039                             : en:00:32:38.039\n00:39:35.331                             : en:00:39:35.331\n00:49:06.152                             : en:00:49:06.152\n00:55:22.027                             : en:00:55:22.027\n01:01:41.239                             : en:01:01:41.239\n01:09:18.654                             : en:01:09:18.654\n01:17:03.035                             : en:01:17:03.035\n01:22:09.842                             : en:01:22:09.842\n01:27:51.558                             : en:01:27:51.558\n01:36:41.587                             : en:01:36:41.587\n01:45:14.099                             : en:01:45:14.099\n01:48:46.645                             : en:01:48:46.645\n","torrent":{"xt":"urn:btih:a72256cbdc02a914cf1e0daaedb5a95badfb76a5","amp;dn":"World+War+Z+%5B2013%2C+BDRip-AVC+1080p%5D++","amp;tr":["udp%3A%2F%2Ftracker.openbittorrent.com%3A80","udp%3A%2F%2Fopen.demonii.com%3A1337","udp%3A%2F%2Ftracker.coppersurfer.tk%3A6969","udp%3A%2F%2Fexodus.desync.com%3A6969"],"infoHash":"a72256cbdc02a914cf1e0daaedb5a95badfb76a5","infoHashBuffer":{"type":"Buffer","data":[167,34,86,203,220,2,169,20,207,30,13,170,237,181,169,91,173,251,118,165]},"announce":[],"urlList":[]}}